<?xml version="1.0" encoding="UTF-8" standalone="no"?>
<!-- Created with Inkscape (http://www.inkscape.org/) -->

<svg
   xmlns:dc="http://purl.org/dc/elements/1.1/"
   xmlns:cc="http://creativecommons.org/ns#"
   xmlns:rdf="http://www.w3.org/1999/02/22-rdf-syntax-ns#"
   xmlns:svg="http://www.w3.org/2000/svg"
   xmlns="http://www.w3.org/2000/svg"
   xmlns:sodipodi="http://sodipodi.sourceforge.net/DTD/sodipodi-0.dtd"
   xmlns:inkscape="http://www.inkscape.org/namespaces/inkscape"
   width="165.97603mm"
   height="235.46863mm"
   viewBox="0 0 165.97603 235.46863"
   version="1.1"
   id="svg904"
   inkscape:version="0.92.3 (unknown)"
   sodipodi:docname="Scythe.svg">
  <defs
     id="defs898" />
  <sodipodi:namedview
     id="base"
     pagecolor="#ffffff"
     bordercolor="#666666"
     borderopacity="1.0"
     inkscape:pageopacity="0.0"
     inkscape:pageshadow="2"
     inkscape:zoom="0.26010471"
     inkscape:cx="486.93735"
     inkscape:cy="516.52761"
     inkscape:document-units="mm"
     inkscape:current-layer="layer1"
     showgrid="false"
     inkscape:window-width="1366"
     inkscape:window-height="725"
     inkscape:window-x="0"
     inkscape:window-y="0"
     inkscape:window-maximized="1"
     inkscape:snap-global="false"
     showguides="false" />
  <metadata
     id="metadata901">
    <rdf:RDF>
      <cc:Work
         rdf:about="">
        <dc:format>image/svg+xml</dc:format>
        <dc:type
           rdf:resource="http://purl.org/dc/dcmitype/StillImage" />
        <dc:title />
      </cc:Work>
    </rdf:RDF>
  </metadata>
  <g
     inkscape:label="Layer 1"
     inkscape:groupmode="layer"
     id="layer1"
     transform="translate(-263.01358,-443.37734)">
    <g
       id="g2161"
       transform="matrix(2.0169807,0,0,2.0169807,135.51676,313.55828)"
       style="fill:#000000">
      <g
         transform="matrix(1.5238768,0,0,1.5238768,144.77485,-139.29773)"
         style="fill:#000000"
         id="g2159">
        <path
           style="fill:#000000"
           inkscape:connector-curvature="0"
           id="path2155"
           d="m -53.52344,136.99047 c 0,0 3.1,0.6 16.6,-0.9 13.5,-1.5 28.6000003,2.5 37.40000027,12.2 0,0 -21.30000027,-11.1 -42.10000027,-2.8 l -1.2,-4.1 -7,0.1 c 0,-0.1 -3.6,-2.6 -3.7,-4.5 z"
           class="st0" />
        <path
           style="fill:#000000"
           inkscape:connector-curvature="0"
           id="path2157"
           d="m -42.82344,141.39047 c 0,0 20.3,-8.2 43.30000027,6.9 0,0 -19.40000027,-10.6 -42.10000027,-2.8 z"
           class="st0" />
      </g>
    </g>
    <path
       sodipodi:nodetypes="cczcccczcccccccc"
       id="path2163"
       d="m 288.70037,444.66705 c 6.22959,-2.39752 8.65293,-0.7176 8.65293,-0.7176 0,0 -5.42512,59.49766 3.5941,78.88815 9.01921,19.3905 17.73301,28.94807 25.31518,41.33634 9.75967,13.87025 20.11093,29.07016 23.6157,39.95421 5.9817,17.11535 4.26085,35.88384 4.27144,53.70619 5e-4,6.5622 0.006,12.31118 0.006,18.30704 0,2.29869 -2.27261,2.7934 -3.83432,2.69241 -1.56171,-0.10105 -3.47907,0.0668 -3.83432,-2.69241 -0.40138,-2.93263 0.002,-10.23628 0,-15.19984 -0.002,-9.35781 0.16499,-18.73675 -0.0258,-28.09029 -0.18838,-9.05086 -0.8297,-18.20122 -4.18041,-26.70598 -5.80471,-9.9616 -14.77223,-23.45684 -20.26275,-32.16059 -5.39539,-8.59791 -10.67223,-17.2699 -15.95331,-25.93553 -7.10869,-9.47291 -12.87072,-19.01922 -16.76823,-31.43676 -6.46642,-23.19867 -4.78579,-48.53092 -0.59687,-71.94548"
       style="clip-rule:evenodd;fill-rule:evenodd;stroke-width:2.11666656"
       inkscape:connector-curvature="0" />
  </g>
</svg>
